<?xml version="1.0" encoding="UTF-8" standalone="no"?>
<!DOCTYPE svg PUBLIC "-//W3C//DTD SVG 1.1//EN" "http://www.w3.org/Graphics/SVG/1.1/DTD/svg11.dtd">
<svg width="100%" height="100%" viewBox="0 0 254 264" version="1.1" xmlns="http://www.w3.org/2000/svg" xmlns:xlink="http://www.w3.org/1999/xlink" xml:space="preserve" xmlns:serif="http://www.serif.com/" style="fill-rule:evenodd;clip-rule:evenodd;stroke-linejoin:round;stroke-miterlimit:2;">
    <g transform="matrix(1,0,0,1,-410.774562,-890.249317)">
        <g transform="matrix(4.166667,0,0,4.166667,0,0)">
            <g transform="matrix(1,0,0,1,159.358895,213.659836)">
                <path d="M-17.153,48.411L-11.856,62.725L0,62.725L-23.209,0L-37.564,0L-60.773,62.725L-48.917,62.725L-43.621,48.411L-50.365,42.63L-41.481,42.629L-30.387,12.645L-19.292,42.628L-10.408,42.629L-17.153,48.411Z" style="fill:rgb(255,255,255);"/>
            </g>
        </g>
        <g transform="matrix(4.166667,0,0,4.166667,0,0)">
            <g transform="matrix(1,0,0,1,47.957366,-31.319064)">
                <path d="M73.996,296.742L65.091,289.108L76.551,289.107L80.996,277.092L85.442,289.106L96.939,289.107L87.995,296.775L92.291,308.168L80.995,301.976L69.678,308.168L73.996,296.742Z" style="fill:rgb(255,255,255);"/>
            </g>
        </g>
    </g>
</svg>
